<svg width="24" height="24" viewBox="0 0 24 24" fill="none" xmlns="http://www.w3.org/2000/svg">
<path fill-rule="evenodd" clip-rule="evenodd" d="M7 8L7 3L5 3L5 8H7ZM8 3C8 2.44772 7.55228 2 7 2H5C4.44772 2 4 2.44772 4 3V8C4 8.55228 4.44772 9 5 9H7C7.55228 9 8 8.55228 8 8L8 6.5H11.5L11.5 17.5H8V16C8 15.4477 7.55228 15 7 15H5C4.44772 15 4 15.4477 4 16V21C4 21.5523 4.44772 22 5 22H7C7.55228 22 8 21.5523 8 21L8 18.5H16V21C16 21.5523 16.4477 22 17 22H19C19.5523 22 20 21.5523 20 21V16C20 15.4477 19.5523 15 19 15H17C16.4477 15 16 15.4477 16 16V17.5H12.5L12.5 6.5H16V8C16 8.55228 16.4477 9 17 9H19C19.5523 9 20 8.55228 20 8V3C20 2.44772 19.5523 2 19 2H17C16.4477 2 16 2.44772 16 3V5.5H8V3ZM17 3L19 3V8H17V3ZM7 21L7 16H5L5 21H7ZM17 16H19V21H17V16Z" fill="#2E58DB"/>
</svg>
